<svg xmlns="http://www.w3.org/2000/svg" version="1.1" xmlns:xlink="http://www.w3.org/1999/xlink" xmlns:svgjs="http://svgjs.dev/svgjs" width="100%" height="100%" viewBox="0 0 1000 600"><rect width="1000" height="600" x="0" y="0" fill="#b0b0b0"/><g><rect width="333.3333333333333" height="333.3333333333333" y="343.3206161132546" fill="#3e657a" transform="matrix(0.3892887562831756,0,0,0.38928875628317555,-4.388027348626723,101.4676790262934)" x="339.555419921875"/><path d="M332.3703169229478 510.57739743831496L332.3703169229478 510.57739743831496Q332.3703169229478 492.2974345452319 337.859795269219 478.271817370509Q343.3218262237588 464.2187528040547 352.9284133297334 454.5572709146174Q362.5075530439766 444.8683416334488 374.9137741065495 439.92781112180467Q387.29254777739106 434.9872806101606 401.0436910348004 434.9872806101606L401.0436910348004 434.9872806101606Q412.1049899025369 434.9872806101606 419.65302262865976 436.1126236711462Q427.228502746514 437.26541412386314 432.05924369123267 438.5279941435055Q436.91743202768265 439.81802155487924 439.8817503346691 440.5042063481631L439.8817503346691 440.5042063481631L436.50572115171235 461.17209232187423Q434.94121982302505 460.1839862195454 431.07113758890387 458.3999057570073Q427.228502746514 456.6158252944691 420.3117600302123 455.0787713575132Q413.39501731391056 453.5691648122886 402.52585018829365 453.5691648122886L402.52585018829365 453.5691648122886Q388.28065387971986 453.5691648122886 377.7134080631478 460.32122317820216Q367.1461622465758 467.1007289358471 361.35476259125966 479.58929217361407Q355.59081032767494 492.1053028031124 355.59081032767494 509.1775804600158L355.59081032767494 509.1775804600158Q355.59081032767494 525.9753841996056 361.2724204160656 538.9854478802683Q366.9540305044563 551.9680641691998 377.63106588795375 559.3788599366659Q388.28065387971986 566.789655704132 403.019903239458 566.789655704132L403.019903239458 566.789655704132Q410.32090943999873 566.789655704132 417.5944682488081 565.4172861175641Q424.840579665886 564.017469139265 430.5221897542767 561.9589147594133Q436.2037998426674 559.8729129878302 438.7838546654149 557.7045690410532L438.7838546654149 557.7045690410532L438.7838546654149 577.2745593455099Q434.5295089470547 578.9488502411227 429.39684669329114 580.7329307036607Q424.2641844395275 582.5170111661989 417.5944682488081 583.75214379411Q410.92475205808853 584.9872764220208 401.8396653950097 584.9872764220208L401.8396653950097 584.9872764220208Q380.7875159370597 584.9872764220208 365.1699500419181 575.6277158416285Q349.5523841467766 566.2956026529675 340.96135053486216 549.5526936968404Q332.3703169229478 532.8097847407132 332.3703169229478 510.57739743831496ZM490.35750372863276 583.3953277016024L467.0546681487115 583.3953277016024L467.0546681487115 436.5517819388479L552.2239246911091 436.5517819388479L552.2239246911091 454.33769178076653L490.35750372863276 454.33769178076653L490.35750372863276 500.77867859022086L536.6063587959676 500.77867859022086L536.6063587959676 518.5645884321395L490.35750372863276 518.5645884321395L490.35750372863276 583.3953277016024ZM594.7124870912481 522.1327493572157L594.7124870912481 583.3953277016024L571.3822041195956 583.3953277016024L571.3822041195956 436.5517819388479Q573.1662845821337 436.5517819388479 574.8405754777465 436.5517819388479Q576.5148663733592 436.5517819388479 578.2166046607033 436.5517819388479Q579.890895556316 436.5517819388479 581.6749760188541 436.5517819388479L581.6749760188541 436.5517819388479Q588.6740609103499 436.5517819388479 598.2532006245931 435.7832549703699Q607.8597877305676 434.9872806101606 619.4151396494685 434.9872806101606L619.4151396494685 434.9872806101606Q630.476438517205 434.9872806101606 639.6713147472093 437.2928615155945Q648.8661909772135 439.62588981275974 655.6182493431271 444.62131510786656Q662.397755100772 449.61674040297333 666.1031529845051 457.5490366133352Q669.8085508682382 465.50878021542843 669.8085508682382 476.8720003922098L669.8085508682382 476.8720003922098Q669.8085508682382 490.12909059845475 665.3620734077584 499.21417726153356Q660.9155959472788 508.29926392461243 652.6539310361406 513.5417157453014Q644.4197135167339 518.7841675659904 633.0564933399525 520.5408006367971L633.0564933399525 520.5408006367971Q628.9942793637118 521.144643254887 624.6850388618889 521.5014593473946Q620.4032457517974 521.8308280481709 613.4865030354956 521.995512398559Q606.569760319194 522.1327493572157 594.7124870912481 522.1327493572157L594.7124870912481 522.1327493572157ZM594.7124870912481 453.7612965544081L594.7124870912481 505.5270773597455Q596.7710414710999 505.82899866879035 601.0802819729228 505.96623562744713Q605.3895224747456 506.1309199778353 609.8359999352252 506.1309199778353Q614.282477395705 506.1309199778353 616.8350848267211 506.1309199778353L616.8350848267211 506.1309199778353Q631.0802811352949 506.1309199778353 638.7655508200745 499.15928247807085Q646.4782678965855 492.1876449783065 646.4782678965855 477.8601064945386L646.4782678965855 477.8601064945386Q646.4782678965855 469.3788624495496 643.6237391565245 463.58746279423355Q640.7417630247321 457.7960631389174 634.0720468340127 454.8866396153937Q627.4023306432931 451.97721609186993 616.0391104665117 451.97721609186993L616.0391104665117 451.97721609186993Q610.3300529863898 451.97721609186993 604.730785073193 452.41637435957165Q599.1589645517279 452.85553262727336 594.7124870912481 453.7612965544081L594.7124870912481 453.7612965544081ZM680.0738753757653 583.3953277016024L653.998853230977 583.3953277016024Q652.7088258196034 581.4191154969446 651.8305092841999 579.3331137253617Q650.9247453570651 577.2745593455099 648.6466118433627 572.5261605759854L648.6466118433627 572.5261605759854Q645.5999513611822 565.9113391687285 642.6356330541958 557.5673320823964Q639.6713147472093 549.1958776043327 636.1580486055957 541.2910287857023Q632.6447824639821 533.3861799670717 628.1159628283084 527.9241490125319Q623.5596958009033 522.4346706662607 617.4389274448109 521.528906739126L617.4389274448109 521.528906739126L626.3318823657703 514.6121640228243L640.1653677983736 515.819849259004Q645.9842148454211 518.290114514826 650.595376656289 524.7128041799633Q655.1790910754254 531.1354938451005 659.0766207012779 539.5618431066268Q662.9741503271305 548.0156397598845 666.5972060356695 556.7164629387244Q670.1928143524771 565.4172861175641 674.1452387617924 572.5261605759854L674.1452387617924 572.5261605759854Q675.6273979152855 575.2983471408522 677.1095570687788 578.0156389222566Q678.591716222272 580.7329307036607 680.0738753757653 583.3953277016024L680.0738753757653 583.3953277016024Z " fill="#b0b0b0" transform="matrix(0.3892887562831756,0,0,0.38928875628317555,-4.388027348626723,101.4676790262934)"/><path d="M756.2220929707919 497.60465388153654L756.2220929707919 497.60465388153654Q756.2220929707919 484.5764849193023 760.1344560225139 474.58039732215263Q764.0272572589772 464.56474790974437 770.8738925994908 457.6789889387137Q777.7009661247455 450.77366815242436 786.5429066216373 447.25254140587464Q795.3652853032703 443.7314146593248 805.165754747834 443.7314146593248L805.165754747834 443.7314146593248Q813.0491662970537 443.7314146593248 818.4286654931714 444.53344908492784Q823.8277265045477 445.35504532578943 827.2706059900631 446.25488882768553Q830.733047290837 447.1742941448402 832.8457233387669 447.6633395263054L832.8457233387669 447.6633395263054L830.4396200619578 462.3933864160387Q829.3245965922172 461.68916106672873 826.5663806407531 460.4176430749191Q823.8277265045477 459.14612508310944 818.898149059378 458.0506634286273Q813.9685716142083 456.9747635894037 806.2220927717988 456.9747635894037L806.2220927717988 456.9747635894037Q796.0695106525802 456.9747635894037 788.5382117780155 461.78697014302173Q781.0069129034507 466.6187385118984 776.879369883884 475.5193644545659Q772.7713886795759 484.43955221249206 772.7713886795759 496.6070013033474L772.7713886795759 496.6070013033474Q772.7713886795759 508.5788322416167 776.8206844381082 517.8511326741977Q780.8699801966404 527.1038712915202 788.4795263322396 532.385561411345Q796.0695106525802 537.6672515311695 806.5742054464538 537.6672515311695L806.5742054464538 537.6672515311695Q811.777648305244 537.6672515311695 816.9615293487757 536.6891607682392Q822.1258485770486 535.69150819005 826.1751443355809 534.2243720456543Q830.2244400941131 532.737674086 832.0632507284225 531.1922906805697L832.0632507284225 531.1922906805697L832.0632507284225 545.1398649599586Q829.031169363338 546.3331356907338 825.373109909978 547.6046536825434Q821.7150504566179 548.8761716743531 816.9615293487757 549.7564533609905Q812.2080082409334 550.636735047628 805.7330473903336 550.636735047628L805.7330473903336 550.636735047628Q790.7291350869798 550.636735047628 779.5984622048308 543.966156044442Q768.4677893226817 537.3151388565146 762.3449411467368 525.3824315487626Q756.2220929707919 513.4497242410105 756.2220929707919 497.60465388153654ZM868.0569908042647 549.5021497626286L851.8598077701357 549.5021497626286L851.8598077701357 434.9872832387262L868.0569908042647 434.9872832387262L868.0569908042647 467.24471660017394L867.1962709328859 481.4074708474075L866.4333601378002 479.56866021309816Q869.25026153504 477.31905145835805 873.61254633771 475.1281281493937Q877.9748311403799 472.956766655688 883.04134129236 471.5091923265509Q888.1274132595985 470.06161799741375 893.115676150544 469.9246852906035L893.115676150544 469.9246852906035Q905.9286651449335 469.5725726159485 911.7385242767407 476.9669387837031Q917.5483834085478 484.3613049514576 917.5483834085478 501.5365787485171L917.5483834085478 501.5365787485171L917.5483834085478 549.5021497626286L901.3512003744188 549.5021497626286L901.3512003744188 501.39964604170683Q901.3512003744188 491.75567111921214 898.3582426398515 487.452071762318Q895.3652849052842 483.1680342206824 886.7776480067545 483.5788323411132L886.7776480067545 483.5788323411132Q883.04134129236 483.65707960214763 877.8378984335696 485.3393957143881Q872.6344555747795 487.0412736418872 868.0569908042647 490.4841531274025L868.0569908042647 490.4841531274025L868.0569908042647 549.5021497626286ZM971.2260044781734 550.636735047628L971.2260044781734 550.636735047628Q954.3245960947345 550.636735047628 945.169666553705 539.9168602859097Q936.0147370126756 529.2165473394501 936.0147370126756 510.20246290808126L936.0147370126756 510.20246290808126Q936.0147370126756 498.7979246123117 940.0640327712078 489.77992777809254Q944.1133285297401 480.7619309438734 952.0358637094771 475.4802408240487Q959.9583988892141 470.19855070422403 971.499869891794 470.06161799741375L971.499869891794 470.06161799741375Q977.4075380998942 469.9246852906035 982.630542773943 471.76349592491283Q987.8339856327332 473.58274474396353 991.8441577607482 477.2799278278408Q995.873891704022 480.9771109117181 998.2213095350551 486.6109137061977Q1000.5882891813469 492.2447165006774 1000.8034691491915 499.7760153752422L1000.8034691491915 499.7760153752422Q1000.8034691491915 504.2165474389467 1000.7252218881572 507.6985505549792Q1000.6469746271227 511.2001154862704 1000.0992437998816 513.8605223614413L1000.0992437998816 513.8605223614413L945.4435319673255 513.8605223614413L946.8519826659455 503.59056935067116L985.5843768779931 503.59056935067116Q985.936489552648 497.9567665561915 984.9192751592003 492.90981821947014Q983.9020607657526 487.8824316980074 980.5569903565304 484.7525412566298Q977.211919947308 481.6226508152522 970.6587118356737 481.6226508152522L970.6587118356737 481.6226508152522Q965.1618417480043 481.6226508152522 960.7995569453343 484.67429399559535Q956.4372721426643 487.7454989911971 954.0311688658553 495.0029324521414Q951.6446274043049 502.2408040978271 952.0554255247357 514.8581749396304L952.0554255247357 514.8581749396304Q952.4857854604251 523.7196772517807 955.6547995323199 528.8644346647951Q958.8238136042147 534.0091920778095 963.9685710172291 536.2001153867739Q969.1133284302435 538.3714768804796 975.4513565740332 538.3714768804796L975.4513565740332 538.3714768804796Q978.1117634492041 538.3714768804796 981.9850028704088 537.7846224227212Q985.8582422916136 537.1782061497044 989.4967399297151 536.2196772020325Q993.1156757525579 535.2807100696192 995.013171832643 534.1461247846198L995.013171832643 534.1461247846198L998.123500458762 543.4379870324595Q995.5217790293669 545.5506630803894 991.0421233351452 547.174293746854Q986.5624676409235 548.7979244133187 981.3590247821334 549.7173297304732Q976.1555819233431 550.636735047628 971.2260044781734 550.636735047628ZM1066.4333593418278 584.283057292437L1066.4333593418278 559.0874392393474L1066.7072247554484 542.0295363338396L1066.4333593418278 535.69150819005L1066.4333593418278 482.3268761645622L1067.978742747258 480.6249982370631L1068.4091026829474 473.7196774507738L1082.6305423759568 471.05927057560285L1082.6305423759568 584.283057292437L1066.4333593418278 584.283057292437ZM1045.2283516014945 550.636735047628L1045.2283516014945 550.636735047628Q1036.99282737762 550.636735047628 1029.9114502540033 546.5483156585785Q1022.8300731303863 542.459896269529 1018.5069119582336 534.1461247846198Q1014.1837507860809 525.8323532997106 1014.1837507860809 513.0976115663556L1014.1837507860809 513.0976115663556Q1014.1837507860809 500.3433080177419 1019.1133282312504 490.66020946473Q1024.04290567642 480.9771109117181 1032.8652843580533 475.5193644545659Q1041.7072248549448 470.06161799741375 1053.6203703474384 470.06161799741375L1053.6203703474384 470.06161799741375Q1060.858241993124 470.06161799741375 1066.570292048638 471.78305774017144Q1072.2823421041521 473.5240592981877 1073.5342982807033 474.7173300289629L1073.5342982807033 474.7173300289629L1066.4333593418278 485.0655303007676Q1064.2424360328637 483.2267196664582 1060.7213092863137 482.52249431714824Q1057.200182539764 481.8182689678383 1052.4075378014045 481.8182689678383L1052.4075378014045 481.8182689678383Q1046.4216223322699 481.8182689678383 1041.609415778652 485.143777561802Q1036.7776474097752 488.4497243405071 1033.9020605667597 495.0029324521414Q1031.006911908485 501.5365787485171 1030.9286646474507 511.2001154862704L1030.9286646474507 511.2001154862704Q1030.7330464948648 524.9911952435904 1035.7213093858104 531.4074706484145Q1040.7291340920142 537.8041842379798 1049.7471309262337 537.8041842379798L1049.7471309262337 537.8041842379798Q1055.2244391986442 537.8041842379798 1059.6258476318317 535.7697554510844Q1064.0272560650187 533.735326664189 1066.4333593418278 531.8182687688452L1066.4333593418278 531.8182687688452L1068.9568335101885 539.8581748401339Q1067.3527646589823 541.6187382134087 1064.4967396312254 544.1422123817695Q1061.6407146034685 546.6852483653888 1056.9850025719193 548.6609917065084Q1052.3488523556287 550.636735047628 1045.2283516014945 550.636735047628ZM1127.9748301454147 550.636735047628L1127.9748301454147 550.636735047628Q1120.3065985640396 550.636735047628 1115.5922010867143 548.230631770819Q1110.8582417941311 545.8440903092685 1108.393453071546 541.3644346150469Q1105.9286643489613 536.9043407360838 1105.0483826623238 530.7032452991045Q1104.1681009756862 524.5021498621252 1104.1681009756862 516.9708509875603L1104.1681009756862 516.9708509875603L1104.1681009756862 471.05927057560285L1120.3652840098152 471.05927057560285L1120.3652840098152 516.83391828075Q1120.3652840098152 526.1257805285898 1121.8128583389525 530.4880653312598Q1123.2604326680896 534.8503501339299 1126.3316376636913 536.1218681257394Q1129.3832808440345 537.3933861175491 1134.312858289204 537.3933861175491L1134.312858289204 537.3933861175491Q1137.2080069474787 537.3933861175491 1140.4748300956662 536.5131044309117Q1143.7612150591126 535.6328227442741 1146.6368019021284 534.4004283829818Q1149.5319505604027 533.1680340216893 1151.2142666726431 532.0334487366899L1151.2142666726431 532.0334487366899L1151.2142666726431 471.05927057560285L1167.4114497067721 471.05927057560285L1167.4114497067721 550.636735047628L1159.9583980932418 550.636735047628Q1156.7111367603125 550.636735047628 1154.8136406802273 549.678206099956Q1152.9161446001422 548.7196771522842 1152.9161446001422 544.8464377310795L1152.9161446001422 544.8464377310795L1152.9161446001422 539.3691294586687L1153.1900100137627 542.459896269529Q1150.020995941868 544.5725723174589 1145.756520215491 546.4309447670269Q1141.492044489114 548.3088790318534 1136.8558942728237 549.4630261321114Q1132.2001822412744 550.636735047628 1127.9748301454147 550.636735047628ZM1221.636801603639 550.636735047628L1221.636801603639 550.636735047628Q1204.7353932202 550.636735047628 1195.5804636791704 539.9168602859097Q1186.425534138141 529.2165473394501 1186.425534138141 510.20246290808126L1186.425534138141 510.20246290808126Q1186.425534138141 498.7979246123117 1190.4748298966733 489.77992777809254Q1194.5241256552054 480.7619309438734 1202.4466608349426 475.4802408240487Q1210.3691960146793 470.19855070422403 1221.930228832518 470.06161799741375L1221.930228832518 470.06161799741375Q1227.8378970406184 469.9246852906035 1233.0413398994083 471.76349592491283Q1238.2643445734575 473.58274474396353 1242.2745167014723 477.2799278278408Q1246.2846888294873 480.9771109117181 1248.6516684757794 486.6109137061977Q1250.9990863068124 492.2447165006774 1251.214266274657 499.7760153752422L1251.214266274657 499.7760153752422Q1251.214266274657 504.2165474389467 1251.1555808288813 507.6985505549792Q1251.0773335678468 511.2001154862704 1250.5100409253469 513.8605223614413L1250.5100409253469 513.8605223614413L1195.8738909080496 513.8605223614413L1197.2823416066694 503.59056935067116L1236.014735818717 503.59056935067116Q1236.3668484933721 497.9567665561915 1235.3300722846657 492.90981821947014Q1234.312857891218 487.8824316980074 1230.9677874819959 484.7525412566298Q1227.6227170727734 481.6226508152522 1221.069508961139 481.6226508152522L1221.069508961139 481.6226508152522Q1215.5922006887286 481.6226508152522 1211.2103540708 484.67429399559535Q1206.8480692681296 487.7454989911971 1204.4615278065794 495.0029324521414Q1202.0554245297703 502.2408040978271 1202.4857844654598 514.8581749396304L1202.4857844654598 514.8581749396304Q1202.9161444011493 523.7196772517807 1206.085158473044 528.8644346647951Q1209.2541725449387 534.0091920778095 1214.3793681426946 536.2001153867739Q1219.524125555709 538.3714768804796 1225.8621536994988 538.3714768804796L1225.8621536994988 538.3714768804796Q1228.5421223899282 538.3714768804796 1232.415361811133 537.7846224227212Q1236.2886012323374 537.1782061497044 1239.9075370551805 536.2196772020325Q1243.5460346932819 535.2807100696192 1245.443530773367 534.1461247846198L1245.443530773367 534.1461247846198L1248.5342975842277 543.4379870324595Q1245.9325761548325 545.5506630803894 1241.4724822758694 547.174293746854Q1236.9928265816475 548.7979244133187 1231.7893837228576 549.7173297304732Q1226.5663790488084 550.636735047628 1221.636801603639 550.636735047628ZM1284.175924985415 491.8926038260224L1284.175924985415 491.8926038260224L1283.1978342224843 481.1922908795628Q1284.2541722464491 479.0013675705985 1287.6188044709302 476.36052251068617Q1291.0029985106696 473.7196774507738 1295.6195869117014 471.82218137068867Q1300.2361753127334 469.9246852906035 1305.028820051093 469.9246852906035L1305.028820051093 469.9246852906035Q1307.689226926264 469.9246852906035 1309.6258466368663 470.1398652584482Q1311.5624663474687 470.35504522629293 1312.4818716646232 470.902776053534L1312.4818716646232 470.902776053534L1312.4818716646232 486.1218683247325Q1311.4255336406584 485.55457568223284 1309.2737339622113 484.9285975939573Q1307.1414960990228 484.28305769042316 1302.3488513606633 484.28305769042316L1302.3488513606633 484.28305769042316Q1297.9865665579932 484.28305769042316 1294.4850016267021 485.51545205171556Q1291.0029985106696 486.747846413008 1288.4012770812744 488.5084097862829Q1285.7995556518795 490.2689731595578 1284.175924985415 491.8926038260224ZM1285.017083041535 549.5021497626286L1268.819900007406 549.5021497626286L1268.819900007406 471.19620328241314L1282.6305415799845 471.19620328241314L1283.7455650497254 481.1922908795628L1285.017083041535 487.09995908766297L1285.017083041535 549.5021497626286ZM1355.576550679341 550.636735047628L1355.576550679341 550.636735047628Q1338.6751422959019 550.636735047628 1329.5202127548725 539.9168602859097Q1320.3652832138432 529.2165473394501 1320.3652832138432 510.20246290808126L1320.3652832138432 510.20246290808126Q1320.3652832138432 498.7979246123117 1324.4145789723752 489.77992777809254Q1328.4638747309075 480.7619309438734 1336.3864099106445 475.4802408240487Q1344.3089450903817 470.19855070422403 1355.8699779082199 470.06161799741375L1355.8699779082199 470.06161799741375Q1361.7776461163203 469.9246852906035 1367.000650790369 471.76349592491283Q1372.2040936491594 473.58274474396353 1376.2142657771747 477.2799278278408Q1380.2244379051895 480.9771109117181 1382.5914175514813 486.6109137061977Q1384.9583971977731 492.2447165006774 1385.1540153503593 499.7760153752422L1385.1540153503593 499.7760153752422Q1385.1540153503593 504.2165474389467 1385.0953299045832 507.6985505549792Q1385.0170826435487 511.2001154862704 1384.4497900010492 513.8605223614413L1384.4497900010492 513.8605223614413L1329.8136399837517 513.8605223614413L1331.2220906823716 503.59056935067116L1369.9544848944192 503.59056935067116Q1370.3065975690743 497.9567665561915 1369.2893831756264 492.90981821947014Q1368.2526069669202 487.8824316980074 1364.9075365576978 484.7525412566298Q1361.5624661484756 481.6226508152522 1355.0288198520998 481.6226508152522L1355.0288198520998 481.6226508152522Q1349.5319497644305 481.6226508152522 1345.1696649617604 484.67429399559535Q1340.787818343832 487.7454989911971 1338.4012768822813 495.0029324521414Q1336.014735420731 502.2408040978271 1336.4255335411617 514.8581749396304L1336.4255335411617 514.8581749396304Q1336.8558934768512 523.7196772517807 1340.024907548746 528.8644346647951Q1343.193921620641 534.0091920778095 1348.3386790336554 536.2001153867739Q1353.463874631411 538.3714768804796 1359.8019027752007 538.3714768804796L1359.8019027752007 538.3714768804796Q1362.4818714656303 538.3714768804796 1366.355110886835 537.7846224227212Q1370.2283503080398 537.1782061497044 1373.8668479461412 536.2196772020325Q1377.4857837689842 535.2807100696192 1379.3832798490694 534.1461247846198L1379.3832798490694 534.1461247846198L1382.493608475188 543.4379870324595Q1379.8723252305344 545.5506630803894 1375.4122313515713 547.174293746854Q1370.9325756573498 548.7979244133187 1365.7291327985595 549.7173297304732Q1360.5061281245105 550.636735047628 1355.576550679341 550.636735047628ZM1466.844155870314 549.5021497626286L1451.5076927075638 549.5021497626286L1451.5076927075638 539.0757022297895L1450.646972836185 538.6649041093588L1450.646972836185 483.1680342206824L1451.2142654786849 482.737674284993L1450.646972836185 467.24471660017394L1450.646972836185 434.9872832387262L1466.844155870314 434.9872832387262L1466.844155870314 549.5021497626286ZM1429.598459617921 550.636735047628L1429.598459617921 550.636735047628Q1421.362935394046 550.636735047628 1414.2815582704293 546.5483156585785Q1407.2001811468126 542.459896269529 1402.8770199746596 534.1461247846198Q1398.5342969872481 525.8323532997106 1398.5342969872481 513.0976115663556L1398.5342969872481 513.0976115663556Q1398.5342969872481 500.3433080177419 1403.463874432418 490.66020946473Q1408.3934518775877 480.9771109117181 1417.2353923744795 475.5193644545659Q1426.0773328713708 470.06161799741375 1437.970916548606 470.06161799741375L1437.970916548606 470.06161799741375Q1445.22835000955 470.06161799741375 1450.1579274547198 471.78305774017144Q1455.0875048998896 473.5240592981877 1456.4372701527336 474.7173300289629L1456.4372701527336 474.7173300289629L1450.646972836185 485.0655303007676Q1448.5342967882552 483.2267196664582 1445.0522936722227 482.52249431714824Q1441.5702905561902 481.8182689678383 1436.7776458178305 481.8182689678383L1436.7776458178305 481.8182689678383Q1430.791730348696 481.8182689678383 1425.979523795078 485.143777561802Q1421.1477554262015 488.4497243405071 1418.2526067679269 495.0029324521414Q1415.3770199249116 501.5365787485171 1415.2987726638771 511.2001154862704L1415.2987726638771 511.2001154862704Q1415.0835926960322 524.9911952435904 1420.0914174022364 531.4074706484145Q1425.0992421084406 537.8041842379798 1434.0976771274013 537.8041842379798L1434.0976771274013 537.8041842379798Q1439.5945472150706 537.8041842379798 1443.937270202482 535.7697554510844Q1448.2604313746347 533.735326664189 1450.646972836185 531.8182687688452L1450.646972836185 531.8182687688452L1453.3269415266145 539.8581748401339Q1451.6446254143743 541.6187382134087 1448.8277240171346 544.1422123817695Q1446.0108226198945 546.6852483653888 1441.3551105883453 548.6609917065084Q1436.7189603720549 550.636735047628 1429.598459617921 550.636735047628ZM1532.6305405850194 549.5021497626286L1516.002997615201 549.5021497626286L1516.002997615201 444.8464381290656L1576.7033103626673 444.8464381290656L1576.7033103626673 457.5224944166448L1532.6305405850194 457.5224944166448L1532.6305405850194 490.62108583421275L1565.592199295777 490.62108583421275L1565.592199295777 503.297142121792L1532.6305405850194 503.297142121792L1532.6305405850194 549.5021497626286ZM1606.9850003829956 549.5021497626286L1590.650884642056 549.5021497626286L1590.650884642056 434.9872832387262L1606.9850003829956 434.9872832387262L1606.9850003829956 549.5021497626286ZM1650.3731066265923 550.636735047628L1650.3731066265923 550.636735047628Q1643.3308531334928 550.636735047628 1637.8731066763407 547.8393954656467Q1632.4153602191882 545.0616176989241 1629.2854697778107 539.9559839164269Q1626.1555793364332 534.8503501339299 1626.1555793364332 527.8863439018646L1626.1555793364332 527.8863439018646Q1626.1555793364332 520.3550450272999 1630.2048750949657 515.0929167227338Q1634.2541708534977 509.8503502334263 1641.0812443787527 506.8965161293762L1641.0812443787527 506.8965161293762Q1645.580461888233 505.0577054950669 1650.8621520080574 503.98180565584335Q1656.1438421278822 502.8863440013612 1661.425532247707 502.41686043515455Q1666.7072223675318 501.9669386842065 1671.2260016922705 501.9669386842065L1671.2260016922705 501.9669386842065L1674.5906339167514 506.2705380411007L1671.2260016922705 511.9630262813562Q1668.4677857408064 511.9630262813562 1664.633669950119 512.3542625865284Q1660.7995541594314 512.7454988917005 1657.0632474450367 513.5475333173035Q1653.3269407306425 514.3691295581652 1650.7252193012473 515.6210857347162L1650.7252193012473 515.6210857347162Q1647.1258452936631 517.2447164011809 1644.739303832113 519.7877523848001Q1642.3527623705622 522.3112265531609 1642.3527623705622 526.8300058778997L1642.3527623705622 526.8300058778997Q1642.3527623705622 532.737674086 1645.6195855187502 535.7697554510844Q1648.8864086669382 538.801836816169 1655.3809313327965 538.801836816169L1655.3809313327965 538.801836816169Q1658.6868781115013 538.801836816169 1662.071072151241 537.8041842379798Q1665.4357043757218 536.8260934750493 1667.9396167288241 535.5545754832397Q1670.443529081926 534.2830574914301 1671.2260016922705 533.383213989534L1671.2260016922705 533.383213989534L1674.4537012099413 536.8260934750493L1672.1258451941662 542.8902562052185Q1669.0350783833064 545.7071576024582 1663.186095620982 548.1719463250431Q1657.3371128586573 550.636735047628 1650.3731066265923 550.636735047628ZM1687.4818701721756 495.49197783360665L1687.4818701721756 549.5021497626286L1672.1258451941662 549.5021497626286L1672.1258451941662 537.8041842379798L1671.2260016922705 537.8041842379798L1671.2260016922705 494.572572516452Q1671.2260016922705 487.66725173016266 1667.5875040541691 485.4567666059397Q1663.9685682313261 483.2267196664582 1657.2784274128817 483.2267196664582L1657.2784274128817 483.2267196664582Q1652.837895349177 483.2267196664582 1648.1234978718521 484.10700135309565Q1643.4091003945273 484.98728303973314 1639.457613712288 486.29792466206Q1635.506127030049 487.6085662843868 1633.3934509821188 488.93876972197233L1633.3934509821188 488.93876972197233L1629.5984588219485 477.2408041973236Q1631.222089488413 476.2627134343931 1635.838677889445 474.5021500611182Q1640.4357044752187 472.7415866878433 1646.5976762816804 471.2940123587062Q1652.759648088143 469.8464380295691 1658.8238108183118 469.8464380295691L1658.8238108183118 469.8464380295691Q1667.6266276846864 469.8464380295691 1674.062464904769 471.9004286317231Q1680.5178639401101 473.9348574186185 1683.9998670561426 479.47085113680515Q1687.4818701721756 484.98728303973314 1687.4818701721756 495.49197783360665L1687.4818701721756 495.49197783360665ZM1737.1297572985272 584.987282641747L1737.1297572985272 584.987282641747Q1721.6367996137083 584.987282641747 1712.6188027794888 579.2947944014913Q1703.6203677605286 573.5827443459773 1703.6203677605286 561.9043406365872L1703.6203677605286 561.9043406365872Q1703.6203677605286 557.5224940186587 1705.7330438084582 554.1187381636605Q1707.8457198563883 550.6954204934038 1710.9364866672486 548.3675644776292Q1714.0272534781088 546.0592702771132 1717.0006493974174 544.8464377310795L1717.0006493974174 544.8464377310795L1727.4075351149982 546.4113829517682Q1725.9403989706025 547.7415863893536 1724.101588336293 549.228284349008Q1722.2823395172422 550.6954204934038 1720.893450633881 553.1210855854714Q1719.5241235657786 555.5663124927977 1719.5241235657786 559.6351700665886L1719.5241235657786 559.6351700665886Q1719.5241235657786 564.2908820981377 1721.3629342000877 567.5577052463254Q1723.1821830191384 570.844090209772 1727.1727933318948 572.5655299525297Q1731.1438418293924 574.2869696952873 1737.6970499410268 574.2869696952873L1737.6970499410268 574.2869696952873Q1743.761212671196 574.2869696952873 1748.8864082689515 572.9958898882192Q1754.0311656819663 571.6852482658921 1757.141494308085 569.04440320598Q1760.2322611189456 566.4035581460676 1760.2322611189456 562.4520714638284L1760.2322611189456 562.4520714638284Q1760.2322611189456 558.304966629003 1758.7260013440327 555.4098179707288Q1757.200179753861 552.5342311277132 1753.092198549553 551.0084095375415Q1748.9646555299864 549.5021497626286 1741.0812439807664 549.5021497626286L1741.0812439807664 549.5021497626286L1733.334765138357 549.5021497626286Q1729.3245930103421 549.5021497626286 1726.214264384223 549.3260934253011Q1723.1234975733623 549.1500370879736 1720.6587088507777 548.5240589996981L1720.6587088507777 548.5240589996981Q1719.8175507946576 548.3088790318534 1719.035078184313 547.7807100198709Q1718.2526055739686 547.2525410078885 1717.4114475178485 546.9591137790094L1717.4114475178485 546.9591137790094Q1712.1297573980237 544.924684992114 1710.3300703942318 541.3253109845297Q1708.549945205698 537.745498792204 1708.549945205698 534.1461247846198L1708.549945205698 534.1461247846198Q1708.549945205698 531.4074706484145 1709.9779577195768 528.5514456206574Q1711.4255320487136 525.6954205929003 1714.066377108626 523.054575532988Q1716.7072221685385 520.4137304730757 1720.2283489150882 518.3793016861803L1720.2283489150882 518.3793016861803L1730.3026837732723 520.9027758545409Q1727.7596477896532 521.90042843273 1725.6860953722403 524.3260935247977Q1723.6125429548279 526.7517586168653 1723.6125429548279 529.5099745683292L1723.6125429548279 529.5099745683292Q1723.6125429548279 533.7940121099648 1725.6860953722403 535.3198337001364Q1727.7596477896532 536.8260934750493 1732.630539789047 536.8260934750493L1732.630539789047 536.8260934750493L1746.7150467752458 536.8260934750493Q1755.7917290552414 536.8260934750493 1761.5037791107552 538.7235895551346Q1767.1962673510106 540.6210856352197 1770.3065959771297 543.8292233376317Q1773.39736278799 547.0373610400437 1774.5710717035063 550.9497240917658Q1775.7252188037646 554.8620871434878 1775.7252188037646 558.9309447172786L1775.7252188037646 558.9309447172786Q1775.7252188037646 565.073354708482 1772.69313743868 569.8855612621Q1769.6610560735953 574.7173296309768 1764.320680507995 578.1015236707162Q1758.960743127136 581.4661558951971 1751.9967368950706 583.2267192684719Q1745.0131688477468 584.987282641747 1737.1297572985272 584.987282641747ZM1736.6407119170622 522.7415864888503L1736.6407119170622 522.7415864888503Q1727.8378950506876 522.7415864888503 1720.7956415575882 519.4747633406623Q1713.7533880644883 516.1883783772159 1709.664968675439 510.37851924540877Q1705.5765492863893 504.56866011360165 1705.5765492863893 496.9591139780024L1705.5765492863893 496.9591139780024Q1705.5765492863893 487.80418443697295 1709.664968675439 481.89651622887277Q1713.7533880644883 475.9888480207726 1720.8738888186226 473.0936993624983Q1727.9748277574977 470.19855070422403 1736.9145773306827 470.06161799741375L1736.9145773306827 470.06161799741375Q1745.6587087512812 469.8464380295691 1752.9161422122256 472.60465398103304Q1760.1540138579112 475.34330811723845 1764.4967368453226 481.15316724904557Q1768.8198980174752 486.96302638085274 1768.8198980174752 496.1179559218822L1768.8198980174752 496.1179559218822Q1768.8198980174752 504.7055928204119 1764.67279318265 510.67194647428795Q1760.5061265325662 516.6187383129054 1753.2682548868802 519.6703814932484Q1746.0108214259362 522.7415864888503 1736.6407119170622 522.7415864888503ZM1737.0710718527516 512.1782062492009L1737.0710718527516 512.1782062492009Q1744.3089434984372 512.1782062492009 1748.6125428553314 508.91138310101303Q1752.9161422122256 505.6249981375666 1752.9161422122256 496.6070013033474L1752.9161422122256 496.6070013033474Q1752.9161422122256 488.8605224609379 1749.179835497831 484.81122670240563Q1745.4435287834362 480.7619309438734 1737.8339826478373 480.7619309438734L1737.8339826478373 480.7619309438734Q1733.471697845167 480.7619309438734 1729.7353911307728 482.033448935683Q1725.999084416378 483.30496692749267 1723.749475661638 486.68916096723217Q1721.4998669068982 490.0733550069717 1721.4998669068982 496.33313588972686L1721.4998669068982 496.33313588972686Q1721.4998669068982 502.7494112945509 1725.1970499907752 507.4638087718759Q1728.8942330746522 512.1782062492009 1737.0710718527516 512.1782062492009ZM1779.87232363859 483.30496692749267L1760.1540138579112 483.30496692749267L1755.7330436094653 476.75175881585835Q1757.2784270148954 474.77601547473876 1761.8950154159274 472.6633394268089Q1766.4920420017006 470.550663378879 1771.9889120893704 470.550663378879L1771.9889120893704 470.550663378879L1779.87232363859 470.550663378879L1779.87232363859 483.30496692749267ZM1836.0734188765764 505.84017810541127L1836.0734188765764 549.5021497626286L1819.4654377220163 549.5021497626286L1819.4654377220163 444.8464381290656Q1820.7173938985675 444.8464381290656 1821.9302264446014 444.8464381290656Q1823.1234971753765 444.8464381290656 1824.3167679061517 444.8464381290656Q1825.5100386369268 444.8464381290656 1826.7815566287368 444.8464381290656L1826.7815566287368 444.8464381290656Q1831.7893813349406 444.8464381290656 1838.6164548601955 444.2987073018245Q1845.44352838545 443.7314146593248 1853.679052609325 443.7314146593248L1853.679052609325 443.7314146593248Q1861.562464158545 443.7314146593248 1868.1156722701794 445.37460714104805Q1874.6688803818138 447.0373614380299 1879.5006487506903 450.5976118150969Q1884.312855304308 454.1578621921639 1886.9537003642204 459.81122680190214Q1889.5945454241328 465.484153226899 1889.5945454241328 473.58274474396353L1889.5945454241328 473.58274474396353Q1889.5945454241328 483.03110151387216 1886.425531352238 489.50606236447203Q1883.2565172803434 495.9810232150719 1877.3879727027602 499.71732992946636Q1871.4998663099186 503.4536366438609 1863.401274792854 504.7055928204119L1863.401274792854 504.7055928204119Q1860.50612613458 505.13595275610135 1857.454482954237 505.39025635446325Q1854.383277958635 505.6249981375666 1849.4537005134653 505.7423690291182Q1844.524123068296 505.84017810541127 1836.0734188765764 505.84017810541127L1836.0734188765764 505.84017810541127ZM1836.0734188765764 457.111696296214L1836.0734188765764 494.0052798739523Q1837.5601168362305 494.220459841797 1840.611760016574 494.31826891809004Q1843.6829650121754 494.4356398096417 1846.85197908407 494.4356398096417Q1850.0209931559652 494.4356398096417 1851.8598037902743 494.4356398096417L1851.8598037902743 494.4356398096417Q1861.9928240942345 494.4356398096417 1867.4896941819038 489.4669387339548Q1872.9865642695731 484.4982376582679 1872.9865642695731 474.2869700932735L1872.9865642695731 474.2869700932735Q1872.9865642695731 468.24236917836305 1870.932573667419 464.11482615879635Q1868.8981448805234 459.98728313922965 1864.1446237726814 457.913730721817Q1859.3911026648393 455.84017830440433 1851.2925111477748 455.84017830440433L1851.2925111477748 455.84017830440433Q1847.204091758725 455.84017830440433 1843.2330432612275 456.1531673485421Q1839.242432948471 456.46615639267986 1836.0734188765764 457.111696296214L1836.0734188765764 457.111696296214ZM1896.9302261461116 549.5021497626286L1878.3269398351736 549.5021497626286Q1877.407534518019 548.0936990640087 1876.7815564297434 546.6070011043544Q1876.1555783414678 545.1398649599586 1874.5319476750033 541.755670920219L1874.5319476750033 541.755670920219Q1872.3410243660387 537.0412734428941 1870.228348318109 531.0944816042767Q1868.1156722701794 525.1281279504007 1865.611759917077 519.4943251559209Q1863.127409379234 513.8605223614413 1859.8801480463044 509.96772112497797Q1856.6328867133752 506.055358073256 1852.2706019107054 505.40981816972186L1852.2706019107054 505.40981816972186L1858.6086300544948 500.4802407245522L1868.467784944834 501.340960595931Q1872.6344515949181 503.1015239692059 1875.9012747431061 507.67898873972064Q1879.1680978912937 512.2564535102354 1881.965437473275 518.2619307946286Q1884.7432152399974 524.2869698942804 1887.3058130388754 530.4880653312598Q1889.8879726530122 536.6891607682392 1892.7048740502519 541.755670920219L1892.7048740502519 541.755670920219Q1893.761212074217 543.7314142613386 1894.817550098182 545.668033971941Q1895.8738881221466 547.6046536825434 1896.9302261461116 549.5021497626286L1896.9302261461116 549.5021497626286ZM1929.5984576279902 550.636735047628L1929.5984576279902 550.636735047628Q1922.5562041348908 550.636735047628 1917.0984576777382 547.8393954656467Q1911.6407112205861 545.0616176989241 1908.5108207792086 539.9559839164269Q1905.3809303378312 534.8503501339299 1905.3809303378312 527.8863439018646L1905.3809303378312 527.8863439018646Q1905.3809303378312 520.3550450272999 1909.4302260963632 515.0929167227338Q1913.4795218548957 509.8503502334263 1920.3065953801506 506.8965161293762L1920.3065953801506 506.8965161293762Q1924.805812889631 505.0577054950669 1930.0875030094553 503.98180565584335Q1935.3691931292801 502.8863440013612 1940.650883249105 502.41686043515455Q1945.9325733689293 501.9669386842065 1950.4513526936685 501.9669386842065L1950.4513526936685 501.9669386842065L1953.8159849181493 506.2705380411007L1950.4513526936685 511.9630262813562Q1947.6931367422044 511.9630262813562 1943.8590209515169 512.3542625865284Q1940.0249051608293 512.7454988917005 1936.2885984464347 513.5475333173035Q1932.5522917320404 514.3691295581652 1929.9505703026452 515.6210857347162L1929.9505703026452 515.6210857347162Q1926.351196295061 517.2447164011809 1923.9646548335104 519.7877523848001Q1921.5781133719602 522.3112265531609 1921.5781133719602 526.8300058778997L1921.5781133719602 526.8300058778997Q1921.5781133719602 532.737674086 1924.8449365201477 535.7697554510844Q1928.1117596683357 538.801836816169 1934.6062823341945 538.801836816169L1934.6062823341945 538.801836816169Q1937.9122291128992 538.801836816169 1941.296423152639 537.8041842379798Q1944.6610553771197 536.8260934750493 1947.1649677302216 535.5545754832397Q1949.668880083324 534.2830574914301 1950.4513526936685 533.383213989534L1950.4513526936685 533.383213989534L1953.6790522113388 536.8260934750493L1951.3511961955642 542.8902562052185Q1948.260429384704 545.7071576024582 1942.4114466223796 548.1719463250431Q1936.5624638600552 550.636735047628 1929.5984576279902 550.636735047628ZM1966.707221173573 495.49197783360665L1966.707221173573 549.5021497626286L1951.3511961955642 549.5021497626286L1951.3511961955642 537.8041842379798L1950.4513526936685 537.8041842379798L1950.4513526936685 494.572572516452Q1950.4513526936685 487.66725173016266 1946.812855055567 485.4567666059397Q1943.193919232724 483.2267196664582 1936.5037784142796 483.2267196664582L1936.5037784142796 483.2267196664582Q1932.063246350575 483.2267196664582 1927.34884887325 484.10700135309565Q1922.6344513959252 484.98728303973314 1918.682964713686 486.29792466206Q1914.7314780314468 487.6085662843868 1912.6188019835167 488.93876972197233L1912.6188019835167 488.93876972197233L1908.8238098233464 477.2408041973236Q1910.447440489811 476.2627134343931 1915.064028890843 474.5021500611182Q1919.6610554766162 472.7415866878433 1925.8230272830783 471.2940123587062Q1931.9849990895405 469.8464380295691 1938.0491618197098 469.8464380295691L1938.0491618197098 469.8464380295691Q1946.8519786860843 469.8464380295691 1953.2878159061665 471.9004286317231Q1959.743214941508 473.9348574186185 1963.2252180575406 479.47085113680515Q1966.707221173573 484.98728303973314 1966.707221173573 495.49197783360665L1966.707221173573 495.49197783360665ZM1982.552291533047 511.2001154862704L1982.552291533047 511.2001154862704Q1982.552291533047 499.58039722265613 1986.7776436289068 490.2689731595578Q1991.0029957247666 480.9771109117181 1999.4536999164861 475.5193644545659Q2007.9044041082057 470.06161799741375 2020.580460395785 470.06161799741375L2020.580460395785 470.06161799741375Q2027.9748265635394 470.06161799741375 2033.1195839765537 471.4113832502578Q2038.264341389568 472.7415866878433 2040.1618374696536 474.01310467965294L2040.1618374696536 474.01310467965294L2037.618801486034 486.82609367404245Q2034.6649673819838 484.791664887147 2030.5178625471585 483.7548886784407Q2026.3511958970748 482.737674284993 2020.4435276889744 482.737674284993L2020.4435276889744 482.737674284993Q2015.1618375691496 482.737674284993 2010.2322601239803 485.3198338991295Q2005.3026826788105 487.8824316980074 2001.9967359001057 493.51623449248706Q1998.6907891214005 499.1500372869667 1998.3386764467455 508.3832140890306L1998.3386764467455 508.3832140890306Q1998.045249217866 518.0858744573011 2000.9012742456234 524.7564534604871Q2003.7572992733803 531.4074706484145 2008.784685794843 534.8112265034126Q2013.8316341315644 538.2345441736693 2020.013167753285 538.2345441736693L2020.013167753285 538.2345441736693Q2025.8621505156093 538.2345441736693 2030.8308515912963 536.747846214015Q2035.7995526669833 535.2807100696192 2038.323026835344 533.735326664189L2038.323026835344 533.735326664189L2041.4333554614632 543.164121618839Q2037.833981453879 546.5483156585785 2031.2807733422446 548.582744445474Q2024.747127045869 550.636735047628 2017.3527608781142 550.636735047628L2017.3527608781142 550.636735047628Q2006.1438407349306 550.636735047628 1998.397361892521 545.4137303735791Q1990.6508830501116 540.2102875147889 1986.6015872915796 531.2900997568628Q1982.552291533047 522.3894738141953 1982.552291533047 511.2001154862704ZM2074.531946879031 549.5021497626286L2058.334763844902 549.5021497626286L2058.334763844902 471.19620328241314L2074.531946879031 471.19620328241314L2074.531946879031 549.5021497626286ZM2065.5139500448117 457.32687626405874L2065.5139500448117 457.32687626405874Q2061.4255306557625 457.32687626405874 2058.373887475419 454.70559301940494Q2055.3026824798176 452.1038715900099 2055.3026824798176 447.60465408052954L2055.3026824798176 447.60465408052954Q2055.3026824798176 444.4943254544106 2057.0241222225754 442.00997491656716Q2058.745561965333 439.5060625634651 2061.4255306557625 437.9802409732935Q2064.105499346192 436.47398119838056 2067.0006480044663 436.47398119838056L2067.0006480044663 436.47398119838056Q2071.9889108954117 436.47398119838056 2074.531946879031 439.29088259562036Q2077.0554210473915 442.1077839928602 2077.0554210473915 446.1962033819097L2077.0554210473915 446.1962033819097Q2077.0554210473915 451.04753356604493 2073.573417931359 454.17742400742253Q2070.0914148153265 457.32687626405874 2065.5139500448117 457.32687626405874ZM2115.513949845819 549.5021497626286L2099.31676681169 549.5021497626286L2099.31676681169 471.19620328241314L2113.8903191793543 471.19620328241314L2113.9685664403883 479.5099747673223Q2116.844153283404 477.5342314262027 2121.2455617165915 475.34330811723845Q2125.6469701497786 473.17194662353273 2130.7526039322756 471.60700140284393Q2135.858237714773 470.06161799741375 2140.9443096820114 469.9246852906035L2140.9443096820114 469.9246852906035Q2153.5421187085562 469.5725726159485 2159.038988796226 476.43876977172056Q2164.535858883895 483.30496692749267 2164.535858883895 500.5584879855866L2164.535858883895 500.5584879855866L2164.535858883895 549.5021497626286L2148.1821813276974 549.5021497626286L2148.1821813276974 501.39964604170683Q2148.1821813276974 491.54049115136746 2145.541336267785 487.25645360973186Q2142.9004912078726 482.9528542528377 2134.097674341498 483.4418996343029L2134.097674341498 483.4418996343029Q2131.6328856189134 483.5201468953374 2128.4443097317603 484.3221813209404Q2125.236172029348 485.143777561802 2121.8911016201255 486.65003733671495Q2118.546031210903 488.1562971116279 2115.513949845819 490.4841531274025L2115.513949845819 490.4841531274025L2115.513949845819 549.5021497626286ZM2216.2181747971426 584.987282641747L2216.2181747971426 584.987282641747Q2200.7252171123237 584.987282641747 2191.707220278104 579.2947944014913Q2182.689223443885 573.5827443459773 2182.689223443885 561.9043406365872L2182.689223443885 561.9043406365872Q2182.689223443885 557.5224940186587 2184.801899491815 554.1187381636605Q2186.914575539745 550.6954204934038 2190.0249041658635 548.3675644776292Q2193.1156709767242 546.0592702771132 2196.0695050807744 544.8464377310795L2196.0695050807744 544.8464377310795L2206.4959526136136 546.4113829517682Q2205.028816469218 547.7415863893536 2203.1900058349083 549.228284349008Q2201.351195200599 550.6954204934038 2199.9818681324964 553.1210855854714Q2198.6125410643936 555.5663124927977 2198.6125410643936 559.6351700665886L2198.6125410643936 559.6351700665886Q2198.6125410643936 564.2908820981377 2200.451351698703 567.5577052463254Q2202.270600517754 570.844090209772 2206.26121083051 572.5655299525297Q2210.232259328008 574.2869696952873 2216.785467439642 574.2869696952873L2216.785467439642 574.2869696952873Q2222.8300683545526 574.2869696952873 2227.9748257675674 572.9958898882192Q2233.1195831805817 571.6852482658921 2236.210349991442 569.04440320598Q2239.320678617561 566.4035581460676 2239.320678617561 562.4520714638284L2239.320678617561 562.4520714638284Q2239.320678617561 558.304966629003 2237.7948570273893 555.4098179707288Q2236.2885972524764 552.5342311277132 2232.16105423291 551.0084095375415Q2228.0530730286014 549.5021497626286 2220.169661479382 549.5021497626286L2220.169661479382 549.5021497626286L2212.4231826369723 549.5021497626286Q2208.3934486936987 549.5021497626286 2205.302681882838 549.3260934253011Q2202.2119150719777 549.1500370879736 2199.747126349393 548.5240589996981L2199.747126349393 548.5240589996981Q2198.886406478014 548.3088790318534 2198.1234956829285 547.7807100198709Q2197.341023072584 547.2525410078885 2196.499865016464 546.9591137790094L2196.499865016464 546.9591137790094Q2191.218174896639 544.924684992114 2189.418487892847 541.3253109845297Q2187.618800889055 537.745498792204 2187.618800889055 534.1461247846198L2187.618800889055 534.1461247846198Q2187.618800889055 531.4074706484145 2189.066375218192 528.5514456206574Q2190.513949547329 525.6954205929003 2193.1547946072415 523.054575532988Q2195.795639667154 520.4137304730757 2199.3167664137036 518.3793016861803L2199.3167664137036 518.3793016861803L2209.3911012718877 520.9027758545409Q2206.8480652882686 521.90042843273 2204.7745128708557 524.3260935247977Q2202.7009604534433 526.7517586168653 2202.7009604534433 529.5099745683292L2202.7009604534433 529.5099745683292Q2202.7009604534433 533.7940121099648 2204.7745128708557 535.3198337001364Q2206.8480652882686 536.8260934750493 2211.7189572876623 536.8260934750493L2211.7189572876623 536.8260934750493L2225.8034642738617 536.8260934750493Q2234.8801465538563 536.8260934750493 2240.5921966093706 538.7235895551346Q2246.284684849626 540.6210856352197 2249.3950134757447 543.8292233376317Q2252.4857802866054 547.0373610400437 2253.6399273868633 550.9497240917658Q2254.81363630238 554.8620871434878 2254.81363630238 558.9309447172786L2254.81363630238 558.9309447172786Q2254.81363630238 565.073354708482 2251.7815549372954 569.8855612621Q2248.749473572211 574.7173296309768 2243.4090980066103 578.1015236707162Q2238.049160625751 581.4661558951971 2231.085154393686 583.2267192684719Q2224.101586346362 584.987282641747 2216.2181747971426 584.987282641747ZM2215.7291294156776 522.7415864888503L2215.7291294156776 522.7415864888503Q2206.926312549303 522.7415864888503 2199.8840590562036 519.4747633406623Q2192.8418055631037 516.1883783772159 2188.7533861740544 510.37851924540877Q2184.6649667850047 504.56866011360165 2184.6649667850047 496.9591139780024L2184.6649667850047 496.9591139780024Q2184.6649667850047 487.80418443697295 2188.7533861740544 481.89651622887277Q2192.8418055631037 475.9888480207726 2199.942744501979 473.0936993624983Q2207.063245256113 470.19855070422403 2216.002994829298 470.06161799741375L2216.002994829298 470.06161799741375Q2224.747126249896 469.8464380295691 2231.984997895582 472.60465398103304Q2239.2424313565266 475.34330811723845 2243.585154343938 481.15316724904557Q2247.9083155160906 486.96302638085274 2247.9083155160906 496.1179559218822L2247.9083155160906 496.1179559218822Q2247.9083155160906 504.7055928204119 2243.7612106812653 510.67194647428795Q2239.594544031181 516.6187383129054 2232.337110570237 519.6703814932484Q2225.0992389245516 522.7415864888503 2215.7291294156776 522.7415864888503ZM2216.139927536108 512.1782062492009L2216.139927536108 512.1782062492009Q2223.3973609970526 512.1782062492009 2227.700960353947 508.91138310101303Q2231.984997895582 505.6249981375666 2231.984997895582 496.6070013033474L2231.984997895582 496.6070013033474Q2231.984997895582 488.8605224609379 2228.2682529964463 484.81122670240563Q2224.5319462820516 480.7619309438734 2216.922400146452 480.7619309438734L2216.922400146452 480.7619309438734Q2212.5601153437824 480.7619309438734 2208.8238086293877 482.033448935683Q2205.0875019149935 483.30496692749267 2202.8378931602533 486.68916096723217Q2200.588284405513 490.0733550069717 2200.588284405513 496.33313588972686L2200.588284405513 496.33313588972686Q2200.588284405513 502.7494112945509 2204.2854674893906 507.4638087718759Q2207.982650573268 512.1782062492009 2216.139927536108 512.1782062492009ZM2258.9607411372053 483.30496692749267L2239.2424313565266 483.30496692749267L2234.8018992928223 476.75175881585835Q2236.366844513511 474.77601547473876 2240.963871099284 472.6633394268089Q2245.580459500316 470.550663378879 2251.0773295879853 470.550663378879L2251.0773295879853 470.550663378879L2258.9607411372053 470.550663378879L2258.9607411372053 483.30496692749267Z " fill="#3e657a" transform="matrix(0.3892887562831756,0,0,0.38928875628317555,-4.388027348626723,101.4676790262934)"/></g></svg>